<svg xmlns="http://www.w3.org/2000/svg" viewBox="0 0 880 560" font-family="-apple-system, BlinkMacSystemFont, 'PingFang SC', 'Microsoft YaHei', sans-serif">
  <defs>
    <linearGradient id="logoGrad6" x1="0" y1="0" x2="1" y2="1">
      <stop offset="0%" stop-color="#2B6CB0"/>
      <stop offset="100%" stop-color="#ED8936"/>
    </linearGradient>
  </defs>

  <rect width="880" height="560" fill="#F7FAFC"/>
  <rect x="0" y="0" width="880" height="60" fill="#FFFFFF"/>
  <line x1="0" y1="60" x2="880" y2="60" stroke="#E2E8F0"/>
  <rect x="24" y="14" width="32" height="32" rx="6" fill="url(#logoGrad6)"/>
  <text x="40" y="36" fill="#FFFFFF" font-size="18" font-weight="800" text-anchor="middle">I</text>
  <text x="68" y="36" fill="#2B6CB0" font-size="16" font-weight="700">ITHub 智能服务门户</text>
  <text x="220" y="34" fill="#718096" font-size="14">首页</text>
  <text x="282" y="34" fill="#718096" font-size="14">AI助手</text>
  <text x="358" y="34" fill="#718096" font-size="14">知识库</text>
  <text x="428" y="34" fill="#718096" font-size="14">服务目录</text>
  <rect x="490" y="14" width="92" height="32" rx="6" fill="#EBF4FF"/>
  <text x="536" y="34" fill="#2B6CB0" font-size="14" font-weight="600" text-anchor="middle">我的工单</text>

  <!-- title -->
  <text x="40" y="100" fill="#1A202C" font-size="22" font-weight="600">工单 #10247</text>
  <text x="40" y="122" fill="#718096" font-size="13">VPN 故障排查 + 转人工</text>

  <!-- Meta card -->
  <rect x="40" y="148" width="800" height="80" rx="12" fill="#FFFFFF" stroke="#E2E8F0"/>
  <text x="60" y="176" fill="#718096" font-size="12">状态</text>
  <rect x="60" y="184" width="56" height="22" rx="11" fill="#BEE3F8"/>
  <text x="88" y="200" fill="#3182CE" font-size="12" font-weight="500" text-anchor="middle">处理中</text>

  <text x="160" y="176" fill="#718096" font-size="12">优先级</text>
  <rect x="160" y="184" width="44" height="22" rx="11" fill="#FEEBC8"/>
  <text x="182" y="200" fill="#DD6B20" font-size="12" font-weight="500" text-anchor="middle">P3</text>

  <text x="232" y="176" fill="#718096" font-size="12">分类</text>
  <text x="232" y="201" fill="#1A202C" font-size="13">网络 / VPN</text>

  <text x="360" y="176" fill="#718096" font-size="12">处理组</text>
  <text x="360" y="201" fill="#1A202C" font-size="13">IT 服务台</text>

  <text x="500" y="176" fill="#718096" font-size="12">处理人</text>
  <text x="500" y="201" fill="#1A202C" font-size="13">张工程师</text>

  <text x="640" y="176" fill="#718096" font-size="12">创建于</text>
  <text x="640" y="201" fill="#1A202C" font-size="13">2026-06-27 14:23</text>

  <!-- Timeline card -->
  <rect x="40" y="248" width="800" height="280" rx="12" fill="#FFFFFF" stroke="#E2E8F0"/>
  <text x="60" y="278" fill="#1A202C" font-size="15" font-weight="600">处理记录</text>

  <!-- Timeline line -->
  <line x1="80" y1="310" x2="80" y2="490" stroke="#CBD5E0" stroke-width="2"/>

  <!-- Timeline items -->
  <circle cx="80" cy="310" r="6" fill="#2B6CB0"/>
  <text x="100" y="305" fill="#718096" font-size="12">2026-06-27 14:23 · demo.user</text>
  <rect x="100" y="312" width="60" height="18" rx="9" fill="#EDF2F7"/>
  <text x="130" y="325" fill="#718096" font-size="11" text-anchor="middle">用户提交</text>
  <text x="100" y="344" fill="#4A5568" font-size="13">从 AI 助手对话转入：用户反馈 VPN 无法连接。</text>

  <circle cx="80" cy="380" r="6" fill="#2B6CB0"/>
  <text x="100" y="375" fill="#718096" font-size="12">2026-06-27 14:28 · 张工程师</text>
  <rect x="100" y="382" width="60" height="18" rx="9" fill="#EDF2F7"/>
  <text x="130" y="395" fill="#718096" font-size="11" text-anchor="middle">已分派</text>
  <text x="100" y="414" fill="#4A5568" font-size="13">已分派给 IT 服务台 - 网络支持组处理。</text>

  <circle cx="80" cy="450" r="6" fill="#2B6CB0"/>
  <text x="100" y="445" fill="#718096" font-size="12">2026-06-27 14:35 · 张工程师</text>
  <rect x="100" y="452" width="60" height="18" rx="9" fill="#EDF2F7"/>
  <text x="130" y="465" fill="#718096" font-size="11" text-anchor="middle">公开备注</text>
  <text x="100" y="484" fill="#4A5568" font-size="13">已远程检查 VPN 账号状态，发现密码已过期，</text>
  <text x="100" y="500" fill="#4A5568" font-size="13">正在协助重置，请稍候。</text>
</svg>